<?xml version="1.0" standalone="no"?>
<!DOCTYPE svg PUBLIC "-//W3C//DTD SVG 20010904//EN"
 "http://www.w3.org/TR/2001/REC-SVG-20010904/DTD/svg10.dtd">
<svg version="1.0" xmlns="http://www.w3.org/2000/svg"
 width="530.000000pt" height="530.000000pt" viewBox="0 0 530.000000 530.000000"
 preserveAspectRatio="xMidYMid meet">
<metadata>
Created by potrace 1.11, written by Peter Selinger 2001-2013
</metadata>
<g transform="translate(0.000000,530.000000) scale(0.100000,-0.100000)"
fill="#000000" stroke="none">
<path d="M2920 4415 l0 -564 58 -11 c80 -17 182 -55 282 -105 466 -235 734
-752 655 -1265 -22 -144 -50 -233 -115 -365 -101 -205 -246 -368 -439 -495
l-23 -15 271 -469 c149 -258 272 -471 275 -473 6 -6 166 102 261 178 102 80
262 240 349 349 505 632 651 1468 390 2233 -245 716 -844 1283 -1573 1488 -95
26 -254 59 -353 73 l-38 5 0 -564z"/>
<path d="M2266 4954 c-202 -37 -413 -104 -600 -193 -60 -28 -111 -53 -114 -55
-2 -3 123 -225 279 -494 l282 -489 66 30 c36 17 104 43 151 58 l85 27 3 566 2
566 -37 -1 c-21 0 -73 -7 -117 -15z"/>
<path d="M1352 4581 c-131 -89 -233 -175 -353 -298 -124 -127 -185 -202 -279
-343 -549 -831 -516 -1900 83 -2699 40 -53 124 -149 187 -215 300 -309 637
-512 1047 -630 127 -37 367 -81 383 -71 12 7 13 243 3 765 l-6 366 -80 24
c-111 33 -259 108 -353 178 -250 185 -413 441 -480 752 -25 117 -25 353 0 470
65 302 230 566 464 742 l60 45 -278 483 c-154 266 -283 487 -288 492 -4 4 -54
-23 -110 -61z"/>
<path d="M3160 1508 c-41 -17 -112 -40 -157 -51 l-83 -20 0 -559 0 -559 33 5
c17 3 73 13 122 21 195 32 399 98 588 188 77 37 127 66 125 74 -6 27 -534 932
-543 932 -5 0 -44 -14 -85 -31z"/>
</g>
</svg>
