<?xml version="1.0" standalone="no"?>
<!DOCTYPE svg PUBLIC "-//W3C//DTD SVG 20010904//EN"
 "http://www.w3.org/TR/2001/REC-SVG-20010904/DTD/svg10.dtd">
<svg version="1.0" xmlns="http://www.w3.org/2000/svg"
 width="530.000000pt" height="530.000000pt" viewBox="0 0 530.000000 530.000000"
 preserveAspectRatio="xMidYMid meet">
<metadata>
Created by potrace 1.11, written by Peter Selinger 2001-2013
</metadata>
<g transform="translate(0.000000,530.000000) scale(0.100000,-0.100000)"
fill="#000000" stroke="none">
<path d="M2450 4999 c-283 -27 -580 -111 -820 -231 -47 -24 -84 -47 -82 -53 1
-5 46 -86 100 -180 55 -93 178 -308 276 -477 l177 -306 77 33 c104 46 228 80
340 95 l92 13 0 558 0 559 -37 -1 c-21 -1 -76 -5 -123 -10z"/>
<path d="M2710 4452 l0 -560 63 -7 c182 -19 305 -54 457 -130 456 -230 722
-727 660 -1235 -16 -124 -54 -261 -104 -365 -101 -214 -208 -339 -435 -513
l-25 -19 273 -474 c151 -261 275 -476 277 -478 2 -2 41 21 86 51 567 377 938
983 1029 1678 16 122 16 418 0 540 -93 707 -472 1315 -1057 1696 -330 214
-722 343 -1121 370 l-103 7 0 -561z"/>
<path d="M220 2525 l0 -2205 600 0 600 0 -1 128 0 127 -115 74 c-482 314 -853
839 -1000 1415 -50 196 -65 308 -71 546 -4 176 -2 252 11 350 93 707 461 1318
1033 1717 l77 53 -567 0 -567 0 0 -2205z"/>
<path d="M1349 4606 c-544 -371 -905 -949 -1005 -1611 -25 -166 -25 -484 0
-650 118 -783 597 -1440 1301 -1781 284 -137 569 -214 864 -231 l114 -6 -6
303 c-4 167 -7 417 -7 556 l0 253 -32 5 c-144 21 -196 32 -287 62 -420 139
-722 479 -817 924 -25 117 -25 353 0 470 66 306 237 577 475 750 42 31 60 50
56 60 -11 28 -550 960 -556 960 -3 0 -48 -29 -100 -64z"/>
<path d="M3171 1544 c-94 -42 -210 -74 -337 -91 l-124 -17 0 -555 0 -554 103
7 c289 20 548 85 821 207 181 81 196 9 -119 553 -149 259 -276 471 -281 472
-5 2 -33 -8 -63 -22z"/>
</g>
</svg>
